<svg id="b56b7075-2db7-4070-8385-fe5726571674" data-name="Layer 2" xmlns="http://www.w3.org/2000/svg" viewBox="0 0 512 512"><path d="M279.5,95.21a5.5,5.5,0,0,0-1.51.21,80.17,80.17,0,0,1-44,0,5.5,5.5,0,0,0-1.51-.21,82,82,0,0,0-81.88,81.88v.14l4.76,184.93.64,32a21.38,21.38,0,0,0,11,18.4,21,21,0,0,0,21.06-.11l15-8.77a10.15,10.15,0,0,1,10.75.34l.53.35a75.63,75.63,0,0,0,83.11,0l.54-.35a10.15,10.15,0,0,1,10.75-.34l15,8.77a21,21,0,0,0,21.06.11A21.38,21.38,0,0,0,356,394.13l.64-31.94,4.76-185v-.14A82,82,0,0,0,279.5,95.21Zm66.13,266.73-.65,32a10.49,10.49,0,0,1-5.43,9,10.12,10.12,0,0,1-10.14,0l-15-8.77a21.1,21.1,0,0,0-22.33.64l-.54.36a64.62,64.62,0,0,1-71,0l-.53-.36a21.08,21.08,0,0,0-22.33-.64l-15,8.77a10.12,10.12,0,0,1-10.14,0,10.49,10.49,0,0,1-5.43-9l-.65-32L161.62,177a71,71,0,0,1,70.14-70.81,91.08,91.08,0,0,0,48.48,0A71,71,0,0,1,350.38,177Z"/><path d="M296.92,160.72a17.12,17.12,0,0,0-24.22,24.21l22.91,22.92a17.13,17.13,0,1,0,24.22-24.22Zm15.13,39.35a6.13,6.13,0,0,1-8.66,0l-22.91-22.91a6.12,6.12,0,0,1,8.66-8.66l22.91,22.91A6.13,6.13,0,0,1,312.05,200.07Z"/><path d="M213.63,160.72l-22.91,22.91a17.13,17.13,0,0,0,24.22,24.22l22.91-22.92a17.12,17.12,0,1,0-24.22-24.21Zm16.44,16.44-22.91,22.91a6.12,6.12,0,0,1-10.45-4.33,6.06,6.06,0,0,1,1.79-4.33l22.91-22.91a6.12,6.12,0,1,1,8.66,8.66Z"/></svg>