<svg id="a596b657-3f22-4816-807a-6f20d20e1cc0" data-name="Layer 2" xmlns="http://www.w3.org/2000/svg" viewBox="0 0 512 512"><path d="M220.21,235.45c-2.26-8.23-4.11-14.52-5.25-18.09-8.33-26.08-14-67.59-14.55-71.79V126.71a34,34,0,0,0-67.92,0v18.86c-.56,4.2-6.23,45.71-14.55,71.79-1.14,3.57-3,9.86-5.25,18.09a5,5,0,0,0-.33,1.21c-11.58,42.47-33.06,133.73-25.15,178a5.5,5.5,0,0,0,5.42,4.53H240.27a5.5,5.5,0,0,0,5.42-4.53c7.91-44.33-13.57-135.58-25.15-178A5.55,5.55,0,0,0,220.21,235.45ZM143.49,126.71a23,23,0,0,1,45.92,0v23.37a23,23,0,0,1-45.92,0ZM139.71,171a33.9,33.9,0,0,0,53.48,0c2.61,15.2,6.48,34.67,11.29,49.72,1.31,4.12,2.9,9.45,4.64,15.7l-14.18,19.86a9.6,9.6,0,0,1-7.79,4H145.74a9.6,9.6,0,0,1-7.78-4L123.78,236.4c1.74-6.25,3.33-11.58,4.64-15.7C133.22,205.65,137.1,186.18,139.71,171Zm95.82,237.26H97.37c-4.7-38.67,10.84-112.61,22.7-158.1L129,262.65a20.61,20.61,0,0,0,16.73,8.61h41.41a20.61,20.61,0,0,0,16.74-8.61l8.94-12.51C224.68,295.63,240.23,369.57,235.53,408.24Z"/><path d="M166.45,316.19a5.5,5.5,0,0,0-5.5,5.5V378.8a5.5,5.5,0,0,0,11,0V321.69A5.5,5.5,0,0,0,166.45,316.19Z"/><path d="M201.81,317.24a5.5,5.5,0,1,0-10.94,1.07l6,61a5.49,5.49,0,0,0,5.46,5l.55,0a5.49,5.49,0,0,0,4.93-6Z"/><path d="M137.09,312.3a5.51,5.51,0,0,0-6,4.94l-6,61a5.5,5.5,0,0,0,4.94,6,5,5,0,0,0,.54,0,5.5,5.5,0,0,0,5.47-5l6-61A5.5,5.5,0,0,0,137.09,312.3Z"/><path d="M399.31,235.45c-2.26-8.23-4.11-14.52-5.25-18.09-8.32-26.08-14-67.59-14.55-71.79V126.71a34,34,0,0,0-67.92,0v18.86c-.56,4.2-6.22,45.71-14.55,71.79-1.14,3.57-3,9.86-5.25,18.09a5.55,5.55,0,0,0-.33,1.21c-11.58,42.47-33.06,133.72-25.15,178a5.5,5.5,0,0,0,5.42,4.53H419.37a5.5,5.5,0,0,0,5.42-4.53c7.91-44.32-13.57-135.58-25.15-178A5,5,0,0,0,399.31,235.45ZM322.59,126.71a23,23,0,0,1,45.92,0v23.37a23,23,0,1,1-45.92,0ZM318.81,171a33.9,33.9,0,0,0,53.48,0c2.61,15.2,6.49,34.67,11.29,49.72,1.31,4.12,2.9,9.45,4.64,15.7L374,256.26a9.6,9.6,0,0,1-7.78,4H324.85a9.6,9.6,0,0,1-7.79-4L302.88,236.4c1.74-6.25,3.33-11.58,4.64-15.7C312.33,205.65,316.2,186.18,318.81,171Zm95.82,237.26H276.47c-4.7-38.67,10.85-112.61,22.7-158.1l8.94,12.51a20.61,20.61,0,0,0,16.74,8.61h41.41A20.61,20.61,0,0,0,383,262.65l8.94-12.51C403.79,295.63,419.33,369.57,414.63,408.24Z"/><path d="M345.55,316.19a5.5,5.5,0,0,0-5.5,5.5V378.8a5.5,5.5,0,0,0,11,0V321.69A5.5,5.5,0,0,0,345.55,316.19Z"/><path d="M380.92,317.24A5.5,5.5,0,1,0,370,318.31l6,61a5.5,5.5,0,0,0,5.47,5,5,5,0,0,0,.54,0,5.5,5.5,0,0,0,4.94-6Z"/><path d="M316.2,312.3a5.51,5.51,0,0,0-6,4.94l-6,61a5.49,5.49,0,0,0,4.93,6l.55,0a5.49,5.49,0,0,0,5.46-5l6-61A5.5,5.5,0,0,0,316.2,312.3Z"/></svg>