<svg id="f0ca253c-d49c-4313-bb16-58caec141d45" data-name="Layer 2" xmlns="http://www.w3.org/2000/svg" viewBox="0 0 512 512"><path d="M355.51,211.77c-28.89-22.23-46.11-45.2-46.27-45.43a5.37,5.37,0,0,0-.72-.78c-.34-13.95-5.74-30.27-8.06-36.69a17.89,17.89,0,0,0,2.15-8.78,22.16,22.16,0,0,0-44.32,0,17.89,17.89,0,0,0,2.15,8.78c-1.09,3-2.84,8.15-4.44,14.22-1.6-6.07-3.35-11.22-4.44-14.22a17.89,17.89,0,0,0,2.15-8.78,22.16,22.16,0,0,0-44.32,0,17.89,17.89,0,0,0,2.15,8.78c-2.33,6.42-7.72,22.74-8.06,36.69a4.81,4.81,0,0,0-.71.78c-.17.23-17.39,23.2-46.28,45.43-30.4,23.38-64.2,99.4-65.81,181.43A5.5,5.5,0,0,0,95,398.67c2.33.54,57.36,13.14,75.94,14.69,18.26,1.52,81,.12,85.11,0,2.71.07,30.38.69,54.34.69,12.74,0,24.43-.18,30.77-.71,18.58-1.55,73.61-14.15,75.94-14.69a5.5,5.5,0,0,0,4.27-5.47C419.71,311.17,385.91,235.15,355.51,211.77Zm-6.71,8.72c19.16,14.73,39.68,53.32,51.53,100.21-4.08-1-14.5-5.44-23.5-24.28-7.19-15.05-16.93-32.77-28.95-52.63-14-23.12-34.56-31-47.94-35.58.46-6.27,2.1-11.43,3.85-16.82,1.08-3.35,2.18-6.78,3-10.55A286.07,286.07,0,0,0,348.8,220.49Zm-68.35,26.43c-4.33-3.5-8.52-17.33-8.36-34.75.1-9.91-2.25-17.16-4.51-24.16-1.91-5.89-3.7-11.44-4.16-18.74-.66-10.57,3.36-24.74,6-32.8a32.73,32.73,0,0,0,22,0c2.68,8.06,6.7,22.23,6,32.8-.46,7.3-2.26,12.85-4.16,18.74-2.25,7-4.57,14.15-4.51,24v.21C289,229.59,284.77,243.42,280.45,246.92Zm0-138a11.17,11.17,0,0,1,11.16,11.15c0,1.8,0,7.28-11.16,7.28s-11.16-5.48-11.16-7.28A11.17,11.17,0,0,1,280.45,108.94Zm-31.87,60.33c-.46,7.3-2.25,12.85-4.16,18.74-2.26,7-4.61,14.25-4.51,24.16.16,17.42-4,31.25-8.36,34.75-4.32-3.5-8.52-17.33-8.36-34.75.1-9.91-2.25-17.16-4.51-24.16-1.9-5.89-3.7-11.44-4.16-18.74-.66-10.57,3.36-24.74,6-32.8a32.73,32.73,0,0,0,22,0C245.22,144.53,249.24,158.7,248.58,169.27Zm-17-60.33a11.17,11.17,0,0,1,11.16,11.15c0,1.8,0,7.28-11.16,7.28s-11.16-5.48-11.16-7.28A11.17,11.17,0,0,1,231.55,108.94ZM163.2,220.49a286.07,286.07,0,0,0,42-39.65c.87,3.77,2,7.2,3.05,10.55,1.63,5,3.17,9.84,3.74,15.55l-1.56.53c-13.23,4.45-35.37,11.9-50.13,36.32-12,19.86-21.76,37.58-28.95,52.63-6.7,14-14.13,20-19.22,22.64C124,272.91,144.26,235.05,163.2,220.49Zm177,181.91c-17.9,1.5-83.4,0-84.06,0h-.26c-.66,0-66.16,1.51-84.06,0-14.87-1.24-56.38-10.39-70-13.46a323.57,323.57,0,0,1,7.3-57.31c6.25-1.25,20.78-6.7,32.13-30.46,7-14.74,16.61-32.13,28.44-51.69,12.17-20.13,30.15-26.82,42.68-31.06C213,230.27,216,254,229.68,258.18l.24.08.2.07a3.43,3.43,0,0,0,.34.06,2.3,2.3,0,0,0,.28.06,7,7,0,0,0,.79.07h.05a6.85,6.85,0,0,0,.78-.07c.1,0,.19,0,.29-.06s.22,0,.33-.06l.21-.07.24-.08c17.35-5.3,17.52-41.92,17.48-46.12-.08-8.12,1.89-14.21,4-20.66.37-1.15.74-2.32,1.11-3.5.37,1.18.74,2.35,1.11,3.5,2.09,6.45,4.06,12.54,4,20.66,0,4.2.13,40.82,17.48,46.12l.24.08.21.07c.11,0,.22,0,.33.06s.19.05.29.06a6.85,6.85,0,0,0,.78.07h.05a7,7,0,0,0,.79-.07c.1,0,.19,0,.29-.06s.22,0,.33-.06l.2-.07.24-.08c13.23-4,16.47-26.24,17.25-38.45,12.18,4.35,27.91,11.57,38.9,29.75,11.83,19.56,21.4,37,28.44,51.69,14.57,30.49,34.36,30.84,35.2,30.84a4.8,4.8,0,0,0,.85-.08,324.15,324.15,0,0,1,7.24,57C396.57,392,355.06,401.16,340.19,402.4Z"/></svg>