<svg id="f75f34ac-164c-4b12-b6dd-278b666a84e2" data-name="Layer 2" xmlns="http://www.w3.org/2000/svg" viewBox="0 0 512 512"><path d="M166,196.37a5.5,5.5,0,0,0,5.5-5.5,5.47,5.47,0,0,0-.11-1.07,5.38,5.38,0,0,0-.82-2,5.55,5.55,0,0,0-.68-.84,6.09,6.09,0,0,0-.84-.68,5.79,5.79,0,0,0-.95-.51,5.31,5.31,0,0,0-1-.31,5.53,5.53,0,0,0-5,1.5,5.06,5.06,0,0,0-.69.84,5.74,5.74,0,0,0-.5,1,5.34,5.34,0,0,0-.32,1,5.46,5.46,0,0,0-.1,1.07,5.48,5.48,0,0,0,2.44,4.57,5.79,5.79,0,0,0,1,.51,5.53,5.53,0,0,0,1,.31A5,5,0,0,0,166,196.37Z"/><path d="M184.5,182a5,5,0,0,0-.11,1.08,5.54,5.54,0,0,0,1.61,3.88,5,5,0,0,0,.83.69,5.07,5.07,0,0,0,.95.5,5.57,5.57,0,0,0,1,.32,5.65,5.65,0,0,0,1.08.11A5.51,5.51,0,1,0,187.78,178a5.07,5.07,0,0,0-.95.5,5,5,0,0,0-.83.69,5.53,5.53,0,0,0-.69.83,6.61,6.61,0,0,0-.5.95A5.31,5.31,0,0,0,184.5,182Z"/><path d="M136.74,197.62a5.65,5.65,0,0,0-.11,1.08,5.47,5.47,0,0,0,.11,1.07,5.31,5.31,0,0,0,.31,1,5.79,5.79,0,0,0,.51.95,6.09,6.09,0,0,0,.68.84,5.5,5.5,0,0,0,7.78,0,6.09,6.09,0,0,0,.68-.84,5.79,5.79,0,0,0,.51-.95,6.11,6.11,0,0,0,.31-1,5.47,5.47,0,0,0,.11-1.07,5.65,5.65,0,0,0-.11-1.08,6.4,6.4,0,0,0-.31-1,5.79,5.79,0,0,0-.51-1,5.47,5.47,0,0,0-.68-.83,5.06,5.06,0,0,0-.84-.69,6.61,6.61,0,0,0-1-.5,5.34,5.34,0,0,0-1-.32,5.39,5.39,0,0,0-3.18.32,6,6,0,0,0-.94.5,4.68,4.68,0,0,0-.84.69,5.47,5.47,0,0,0-.68.83,5.79,5.79,0,0,0-.51,1A5.53,5.53,0,0,0,136.74,197.62Z"/><path d="M208.37,174.15a5.46,5.46,0,0,0-.1,1.07,5.5,5.5,0,0,0,5.5,5.5,5.58,5.58,0,0,0,3.89-1.61,6.09,6.09,0,0,0,.68-.84,4.78,4.78,0,0,0,.5-1,5.13,5.13,0,0,0,.32-1,5.77,5.77,0,0,0,0-2.14,5.13,5.13,0,0,0-.32-1,4.52,4.52,0,0,0-.5-1,5.49,5.49,0,0,0-8.46-.84,5.06,5.06,0,0,0-.69.84,4.78,4.78,0,0,0-.5,1A5.13,5.13,0,0,0,208.37,174.15Z"/><path d="M161.31,161.15a5.65,5.65,0,0,0,.11-1.08,5.47,5.47,0,0,0-.11-1.07,5.34,5.34,0,0,0-.32-1,5.07,5.07,0,0,0-.5-.95,5.5,5.5,0,0,0-5.65-2.34,6.11,6.11,0,0,0-1,.31,5.79,5.79,0,0,0-.95.51,5.16,5.16,0,0,0-1.52,1.52,5.07,5.07,0,0,0-.5.95,5.34,5.34,0,0,0-.32,1,5.46,5.46,0,0,0-.1,1.07,5.64,5.64,0,0,0,.1,1.08,5.57,5.57,0,0,0,.32,1,5.07,5.07,0,0,0,.5.95,5.5,5.5,0,0,0,1.52,1.52,6.61,6.61,0,0,0,.95.5,5.31,5.31,0,0,0,1,.31,5.31,5.31,0,0,0,2.15,0,5.31,5.31,0,0,0,1-.31,6.61,6.61,0,0,0,.95-.5,5.88,5.88,0,0,0,1.52-1.52,5.07,5.07,0,0,0,.5-.95A5.57,5.57,0,0,0,161.31,161.15Z"/><path d="M174.72,154.35a5.07,5.07,0,0,0,.5,1,5.5,5.5,0,0,0,1.52,1.52,5.79,5.79,0,0,0,.95.51,6.11,6.11,0,0,0,1,.31,5.55,5.55,0,0,0,1.07.11,5.65,5.65,0,0,0,1.08-.11,6.11,6.11,0,0,0,1-.31,5.79,5.79,0,0,0,.95-.51,5.5,5.5,0,0,0,1.52-1.52,6.61,6.61,0,0,0,.5-1,5.34,5.34,0,0,0,.32-1,5.55,5.55,0,0,0-1.51-5,5,5,0,0,0-.83-.69,6.61,6.61,0,0,0-.95-.5,5.31,5.31,0,0,0-1-.31,5.19,5.19,0,0,0-2.15,0,5.31,5.31,0,0,0-1,.31,6.61,6.61,0,0,0-.95.5,5.88,5.88,0,0,0-1.52,1.52,5.07,5.07,0,0,0-.5.95,5.57,5.57,0,0,0-.32,1,5.65,5.65,0,0,0-.11,1.08,5.47,5.47,0,0,0,.11,1.07A5.34,5.34,0,0,0,174.72,154.35Z"/><path d="M129,172.47a5.79,5.79,0,0,0,1,.51,6.11,6.11,0,0,0,1,.31,5.65,5.65,0,0,0,1.08.11,5.58,5.58,0,0,0,3.89-1.61,6.09,6.09,0,0,0,.68-.84,5.07,5.07,0,0,0,.5-.95,5.34,5.34,0,0,0,.32-1,5.47,5.47,0,0,0,.11-1.07,5.65,5.65,0,0,0-.11-1.08,5.34,5.34,0,0,0-.32-1,5.07,5.07,0,0,0-.5-.95,5.47,5.47,0,0,0-.68-.83,5.56,5.56,0,0,0-5-1.51,6.14,6.14,0,0,0-1,.32,6.61,6.61,0,0,0-1,.5,5.88,5.88,0,0,0-1.52,1.52,5.74,5.74,0,0,0-.5.95,5.34,5.34,0,0,0-.32,1,5.65,5.65,0,0,0-.11,1.08,5.55,5.55,0,0,0,1.62,3.89A5.47,5.47,0,0,0,129,172.47Z"/><path d="M198.59,146.53a5.79,5.79,0,0,0,.51.95,5.5,5.5,0,0,0,1.52,1.52,6.61,6.61,0,0,0,.95.5,5.31,5.31,0,0,0,1,.31,4.8,4.8,0,0,0,1.07.11,5,5,0,0,0,1.08-.11,5.53,5.53,0,0,0,1-.31,6.61,6.61,0,0,0,.95-.5,5.88,5.88,0,0,0,1.52-1.52,6.61,6.61,0,0,0,.5-.95,5.57,5.57,0,0,0,.32-1,5.64,5.64,0,0,0,.1-1.08,5.54,5.54,0,0,0-1.61-3.89,5.47,5.47,0,0,0-.83-.68,5.79,5.79,0,0,0-.95-.51,6.4,6.4,0,0,0-1-.31,5.56,5.56,0,0,0-2.15,0,6.11,6.11,0,0,0-1,.31,5.79,5.79,0,0,0-.95.51,5.16,5.16,0,0,0-1.52,1.52,5.79,5.79,0,0,0-.51.95,6.11,6.11,0,0,0-.31,1,5.47,5.47,0,0,0-.11,1.07,5.65,5.65,0,0,0,.11,1.08A6.4,6.4,0,0,0,198.59,146.53Z"/><path d="M184.75,252.5a5.07,5.07,0,0,0-.5-.95,5.5,5.5,0,0,0-5.65-2.34,6.11,6.11,0,0,0-1,.31,5.79,5.79,0,0,0-.95.51,5.47,5.47,0,0,0-.83.68,5.48,5.48,0,0,0,0,7.78,5,5,0,0,0,.83.69,5.07,5.07,0,0,0,.95.5,5.34,5.34,0,0,0,1,.32,5.64,5.64,0,0,0,1.08.1,5.51,5.51,0,0,0,5.5-5.5,5.63,5.63,0,0,0-.11-1.07A5.34,5.34,0,0,0,184.75,252.5Z"/><path d="M147.84,264.6a5.79,5.79,0,0,0-.51-1,6.09,6.09,0,0,0-.68-.84,5.55,5.55,0,0,0-.84-.68,5.38,5.38,0,0,0-2-.82,5.5,5.5,0,0,0-2.14,0,5.11,5.11,0,0,0-1,.31,5.41,5.41,0,0,0-.95.51,5.55,5.55,0,0,0-.84.68,6.09,6.09,0,0,0-.68.84,5.79,5.79,0,0,0-.51,1,5.31,5.31,0,0,0-.31,1,5.47,5.47,0,0,0-.11,1.07,5.65,5.65,0,0,0,.11,1.08,5.22,5.22,0,0,0,.31,1,5.76,5.76,0,0,0,1.19,1.79,5.55,5.55,0,0,0,.84.68,5.41,5.41,0,0,0,.95.51,5.11,5.11,0,0,0,1,.31,4.8,4.8,0,0,0,1.07.11,5.56,5.56,0,0,0,3.89-1.61,5.76,5.76,0,0,0,1.19-1.79,5.22,5.22,0,0,0,.31-1,5.65,5.65,0,0,0,.11-1.08,5.47,5.47,0,0,0-.11-1.07A5.31,5.31,0,0,0,147.84,264.6Z"/><path d="M248.43,232.51a4.52,4.52,0,0,0,.5,1,5.49,5.49,0,0,0,8.46.84,5.06,5.06,0,0,0,.69-.84,4.52,4.52,0,0,0,.5-1,5.13,5.13,0,0,0,.32-1,5.44,5.44,0,0,0-1.51-5,5.49,5.49,0,0,0-9.38,3.89,5.46,5.46,0,0,0,.1,1.07A5.13,5.13,0,0,0,248.43,232.51Z"/><path d="M170.66,229.2a5.57,5.57,0,0,0,1-.32,5.07,5.07,0,0,0,.95-.5,5,5,0,0,0,.83-.69,4.93,4.93,0,0,0,.68-.83,5.79,5.79,0,0,0,.51-1,6.14,6.14,0,0,0,.32-1,5.54,5.54,0,0,0,.1-1.07,5.64,5.64,0,0,0-.1-1.08,6.14,6.14,0,0,0-.32-1,5.79,5.79,0,0,0-.51-.95,4.93,4.93,0,0,0-.68-.83,5.49,5.49,0,0,0-8.46.83,5.79,5.79,0,0,0-.51.95,6.11,6.11,0,0,0-.31,1,5.65,5.65,0,0,0-.11,1.08,5.55,5.55,0,0,0,.11,1.07,6.11,6.11,0,0,0,.31,1,5.79,5.79,0,0,0,.51,1,5.47,5.47,0,0,0,.68.83,5.55,5.55,0,0,0,3.89,1.62A5.65,5.65,0,0,0,170.66,229.2Z"/><path d="M209.55,207.14a5.79,5.79,0,0,0-1-.51,5.31,5.31,0,0,0-1-.31,5.19,5.19,0,0,0-2.15,0,5.53,5.53,0,0,0-1,.31,5.79,5.79,0,0,0-.95.51,5.48,5.48,0,0,0-2.44,4.57,4.8,4.8,0,0,0,.11,1.07,5.31,5.31,0,0,0,.31,1,5.79,5.79,0,0,0,.51.95,6.09,6.09,0,0,0,.68.84,5.5,5.5,0,0,0,7.78,0,6.09,6.09,0,0,0,.68-.84,5.79,5.79,0,0,0,.51-.95,6.11,6.11,0,0,0,.31-1,5.47,5.47,0,0,0,.11-1.07,5.56,5.56,0,0,0-1.61-3.89A6.09,6.09,0,0,0,209.55,207.14Z"/><path d="M138.06,237a5.65,5.65,0,0,0,.11-1.08,5.47,5.47,0,0,0-.11-1.07,6.11,6.11,0,0,0-.31-1,5.79,5.79,0,0,0-.51-1,5.16,5.16,0,0,0-1.52-1.52,5.79,5.79,0,0,0-.95-.51,6.11,6.11,0,0,0-1-.31,5.5,5.5,0,0,0-5.65,2.34,6.61,6.61,0,0,0-.5,1,6.14,6.14,0,0,0-.32,1,5.46,5.46,0,0,0-.1,1.07,5.64,5.64,0,0,0,.1,1.08,6.45,6.45,0,0,0,.32,1,6.61,6.61,0,0,0,.5,1,5,5,0,0,0,.69.83,5.54,5.54,0,0,0,3.89,1.61,4.8,4.8,0,0,0,1.07-.11,5.31,5.31,0,0,0,1-.31,5.79,5.79,0,0,0,.95-.51,6.09,6.09,0,0,0,.84-.68,5.47,5.47,0,0,0,.68-.83,5.79,5.79,0,0,0,.51-1A6.4,6.4,0,0,0,138.06,237Z"/><path d="M265.24,311.51a6.14,6.14,0,0,0,1-.32,6.61,6.61,0,0,0,1-.5,5.51,5.51,0,0,0,2.45-4.58,5.58,5.58,0,0,0-1.61-3.89,6.09,6.09,0,0,0-.84-.68,5.79,5.79,0,0,0-1-.51,6.11,6.11,0,0,0-1-.31,5.49,5.49,0,0,0-6.57,5.39,5.64,5.64,0,0,0,.1,1.08,6.45,6.45,0,0,0,.32,1,6.61,6.61,0,0,0,.5.95,5,5,0,0,0,.69.83,5.55,5.55,0,0,0,5,1.51Z"/><path d="M184.05,331.93a5.79,5.79,0,0,0-.51-.95,6.09,6.09,0,0,0-.68-.84,5.56,5.56,0,0,0-5-1.5,6.11,6.11,0,0,0-1,.31,5.79,5.79,0,0,0-1,.51,5.55,5.55,0,0,0-.84.68,6.09,6.09,0,0,0-.68.84,5.79,5.79,0,0,0-.51.95,6.11,6.11,0,0,0-.31,1,5.47,5.47,0,0,0-.11,1.07,5.43,5.43,0,0,0,2.45,4.57,5.79,5.79,0,0,0,1,.51,5.31,5.31,0,0,0,1,.31,4.8,4.8,0,0,0,1.07.11,5.54,5.54,0,0,0,3.89-1.61,5.76,5.76,0,0,0,1.19-1.79,5.22,5.22,0,0,0,.31-1,5,5,0,0,0,.11-1.08,4.8,4.8,0,0,0-.11-1.07A5.31,5.31,0,0,0,184.05,331.93Z"/><path d="M382.44,162.63a50,50,0,0,0-34.93-12.29,183,183,0,0,0-58.74,11.75c-1.37-2.61-2.82-5.17-4.37-7.62-21.73-34.38-65.57-56.79-117.26-59.94A50,50,0,0,0,132,106.05c-39.8,33.14-61.87,77.15-59,117.72,2.1,30.12,16.87,60.16,43.91,89.31,20.54,22.15,43,38,54.47,45.44a22.34,22.34,0,0,0,12.15,3.65,21.36,21.36,0,0,0,6.65-1.06c9.66-3.17,15.86-12.83,15.14-23.54l0-5.92a6.45,6.45,0,0,1,4.14-6.37l2.57-.84a305.2,305.2,0,0,0,13,50.08A21.9,21.9,0,0,0,238.24,388c9.59,3.38,20.39-.51,26.34-9.44l3.58-4.72a6.44,6.44,0,0,1,7.16-2.53l25,8.79a6.44,6.44,0,0,1,4,6.46l-.16,5.92c-1,10.69,5,20.48,14.62,23.86a21.36,21.36,0,0,0,7.1,1.21,22.4,22.4,0,0,0,11.75-3.39,297.11,297.11,0,0,0,55.45-44.25c27.66-28.55,43.08-58.27,45.83-88.33C442.62,241.1,421.51,196.62,382.44,162.63ZM205.91,314.83a17.4,17.4,0,0,0-11.71,16.89l0,6.1c0,.13,0,.26,0,.38.44,5.73-2.68,10.85-7.58,12.46a10.94,10.94,0,0,1-9.39-1.37C156.5,335.83,88.35,287,83.89,223,81.3,186,101.9,145.39,139,114.51a39.08,39.08,0,0,1,27.47-9c48.17,3,88.78,23.45,108.63,54.85,1.24,2,2.42,4,3.53,6.09-21,9.89-38.17,24-49.65,41.28-14.09,21.26-21,48-20.56,79.62-10.24,2.37-21.85,1.85-34.59-1.56A5.5,5.5,0,1,0,171,296.4a93.57,93.57,0,0,0,24.21,3.41,70.9,70.9,0,0,0,13.67-1.31c.15,2.24.32,4.5.53,6.79q.39,4.11.9,8.11Zm222-34.24c-5.85,63.83-75,111.23-96.11,124.23a10.92,10.92,0,0,1-9.42,1.16c-4.86-1.71-7.87-6.9-7.31-12.61l0-.38.17-6.1A17.4,17.4,0,0,0,304,369.75L279,361a16.46,16.46,0,0,0-5.47-.93,17.77,17.77,0,0,0-14.1,7.19l-3.69,4.86-.22.32c-3.14,4.8-8.73,7-13.6,5.26a11,11,0,0,1-6.61-6.81c-8.28-23.33-32.54-103.62,2.87-157,11.15-16.83,28.38-30.29,49.51-39.39a6.42,6.42,0,0,0,.8-.29c.16-.08.32-.16.47-.25,17.46-7.32,37.52-11.7,59-12.54a39,39,0,0,1,27.26,9.59C411.63,202.61,431.34,243.6,428,280.59Z"/><path d="M317.77,240.44a4.52,4.52,0,0,0,.5.95,4.68,4.68,0,0,0,.69.84,5.5,5.5,0,0,0,9.39-3.89,5.47,5.47,0,0,0-.11-1.07,6.11,6.11,0,0,0-.31-1,5.79,5.79,0,0,0-.51-1,5.16,5.16,0,0,0-1.52-1.52,5.79,5.79,0,0,0-.95-.51,6.11,6.11,0,0,0-1-.31,5.56,5.56,0,0,0-2.15,0,6.11,6.11,0,0,0-1,.31,5.79,5.79,0,0,0-.95.51,5.48,5.48,0,0,0-2.44,4.57,5.64,5.64,0,0,0,.1,1.08A5.25,5.25,0,0,0,317.77,240.44Z"/><path d="M349.6,242.11a5.41,5.41,0,0,0-1-.51,5.85,5.85,0,0,0-1-.31,5.56,5.56,0,0,0-2.15,0,6,6,0,0,0-1,.31,5.76,5.76,0,0,0-1.79,1.19,5.5,5.5,0,0,0,0,7.78,4.68,4.68,0,0,0,.84.69,5.7,5.7,0,0,0,.95.5,6,6,0,0,0,1,.32,5.64,5.64,0,0,0,1.08.1,5.46,5.46,0,0,0,1.07-.1,5.87,5.87,0,0,0,1-.32,6.12,6.12,0,0,0,1-.5,5.06,5.06,0,0,0,.84-.69,5.47,5.47,0,0,0-.84-8.46Z"/><path d="M294.06,232.1a5.41,5.41,0,0,0,.51,1,5.55,5.55,0,0,0,.68.84,6.09,6.09,0,0,0,.84.68,5.79,5.79,0,0,0,1,.51,5.31,5.31,0,0,0,1,.31,5.47,5.47,0,0,0,1.07.11,5.65,5.65,0,0,0,1.08-.11,5.53,5.53,0,0,0,1-.31,5.79,5.79,0,0,0,.95-.51,5.47,5.47,0,0,0,.83-.68,5.06,5.06,0,0,0,.69-.84,6.12,6.12,0,0,0,.5-1,5.34,5.34,0,0,0,.32-1,5.46,5.46,0,0,0,.1-1.07,5.48,5.48,0,0,0-2.44-4.57,5.79,5.79,0,0,0-.95-.51,5.54,5.54,0,0,0-3.18-.31,5.31,5.31,0,0,0-1,.31,5.79,5.79,0,0,0-1,.51,6.09,6.09,0,0,0-.84.68,5.56,5.56,0,0,0-1.61,3.89,5.47,5.47,0,0,0,.11,1.07A6.11,6.11,0,0,0,294.06,232.1Z"/><path d="M367.2,259.6a5.07,5.07,0,0,0,.95.5,5.34,5.34,0,0,0,1,.32,5.54,5.54,0,0,0,1.07.1,5.64,5.64,0,0,0,1.08-.1,5.57,5.57,0,0,0,1-.32,5.07,5.07,0,0,0,.95-.5,5.88,5.88,0,0,0,1.52-1.52,6.61,6.61,0,0,0,.5-.95,6.14,6.14,0,0,0,.32-1,5.64,5.64,0,0,0,.1-1.08,5.54,5.54,0,0,0-.1-1.07,6.14,6.14,0,0,0-.32-1,6.61,6.61,0,0,0-.5-.95,5.88,5.88,0,0,0-1.52-1.52,5.07,5.07,0,0,0-.95-.5,5.39,5.39,0,0,0-3.18-.32,5.34,5.34,0,0,0-1,.32,5.07,5.07,0,0,0-.95.5,5.5,5.5,0,0,0-1.52,1.52,5.79,5.79,0,0,0-.51.95,6.11,6.11,0,0,0-.31,1,5.63,5.63,0,0,0-.11,1.07,5.51,5.51,0,0,0,2.45,4.58Z"/><path d="M335.56,341.8c-1.38.67-34.18,15.92-64.33-23.43a5.5,5.5,0,0,0-8.73,6.69c18.55,24.22,38.6,30.25,52.15,31,1.17.07,2.32.1,3.43.1a54.11,54.11,0,0,0,22.34-4.53,5.5,5.5,0,0,0-4.86-9.87Z"/><path d="M333.61,213.27a5.63,5.63,0,0,0,1.07-.11,6.11,6.11,0,0,0,1-.31,5.79,5.79,0,0,0,1-.51,5.48,5.48,0,0,0,2.44-4.57,5.64,5.64,0,0,0-.1-1.08,5.25,5.25,0,0,0-.32-1,4.52,4.52,0,0,0-.5-.95,5.06,5.06,0,0,0-.69-.84,5.53,5.53,0,0,0-5-1.5,5.31,5.31,0,0,0-1,.31,5.79,5.79,0,0,0-.95.51,5.47,5.47,0,0,0-.83.68,5.06,5.06,0,0,0-.69.84,4.78,4.78,0,0,0-.5.95,5.25,5.25,0,0,0-.32,1,5.64,5.64,0,0,0-.1,1.08,5.5,5.5,0,0,0,5.5,5.5Z"/><path d="M362.81,216.11a5.49,5.49,0,0,0-6.58-5.39,6,6,0,0,0-1,.31,5.76,5.76,0,0,0-1.79,1.19,5.54,5.54,0,0,0-1.61,3.89,5.47,5.47,0,0,0,.11,1.07,5.38,5.38,0,0,0,.82,2,5.55,5.55,0,0,0,.68.84,5.76,5.76,0,0,0,1.79,1.19,5.22,5.22,0,0,0,1,.31,5.65,5.65,0,0,0,1.08.11,5.43,5.43,0,0,0,4.57-2.45,5.08,5.08,0,0,0,.51-.95,5.85,5.85,0,0,0,.31-1A5.47,5.47,0,0,0,362.81,216.11Z"/><path d="M309.9,204.93a5.5,5.5,0,0,0,5.5-5.5,5.65,5.65,0,0,0-.11-1.08,5.53,5.53,0,0,0-.31-1,5.79,5.79,0,0,0-.51-.95,5.49,5.49,0,0,0-9.14,0,5.79,5.79,0,0,0-.51.95,6.4,6.4,0,0,0-.31,1,5.65,5.65,0,0,0-.11,1.08,5.5,5.5,0,0,0,5.5,5.5Z"/><path d="M384.06,219.88a5.32,5.32,0,0,0-.94-.51,6.4,6.4,0,0,0-1-.31,5.56,5.56,0,0,0-2.15,0,6.11,6.11,0,0,0-1,.31,5.79,5.79,0,0,0-1,.51,5.16,5.16,0,0,0-1.52,1.52,5.79,5.79,0,0,0-.51.95,6.11,6.11,0,0,0-.31,1,5.55,5.55,0,0,0-.11,1.07,5.65,5.65,0,0,0,.11,1.08,6.11,6.11,0,0,0,.31,1,5.79,5.79,0,0,0,.51.95A5.5,5.5,0,0,0,378,229a6.61,6.61,0,0,0,1,.5,6.14,6.14,0,0,0,1,.32,5.46,5.46,0,0,0,1.07.1,5.64,5.64,0,0,0,1.08-.1,6.45,6.45,0,0,0,1-.32,6,6,0,0,0,.94-.5,4.68,4.68,0,0,0,.84-.69,5.5,5.5,0,0,0,1.61-3.89,4.86,4.86,0,0,0-.11-1.07,5.31,5.31,0,0,0-.31-1,5.79,5.79,0,0,0-.51-.95,6.09,6.09,0,0,0-.68-.84A5.1,5.1,0,0,0,384.06,219.88Z"/><path d="M291.81,301.78a5.08,5.08,0,0,0,.95.51,5.22,5.22,0,0,0,1,.31,5.65,5.65,0,0,0,1.08.11,5.47,5.47,0,0,0,1.07-.11,5.31,5.31,0,0,0,1-.31,5.79,5.79,0,0,0,1-.51,6.09,6.09,0,0,0,.84-.68,5.54,5.54,0,0,0,1.61-3.89,5.65,5.65,0,0,0-.11-1.08,6,6,0,0,0-.31-1,5.76,5.76,0,0,0-1.19-1.79,5.55,5.55,0,0,0-5-1.5,5.22,5.22,0,0,0-1,.31,5.76,5.76,0,0,0-1.79,1.19,4.63,4.63,0,0,0-.68.84,5.08,5.08,0,0,0-.51.95,5.22,5.22,0,0,0-.31,1,5.65,5.65,0,0,0-.11,1.08A5.54,5.54,0,0,0,291,301.1,5.1,5.1,0,0,0,291.81,301.78Z"/><path d="M334.55,305.53a4.7,4.7,0,0,0-.94-.5,5.45,5.45,0,0,0-6,1.19,5.47,5.47,0,0,0-.68.83,5.79,5.79,0,0,0-.51.95,6.11,6.11,0,0,0-.31,1,5.49,5.49,0,0,0,5.39,6.57,5.64,5.64,0,0,0,1.08-.1,5.57,5.57,0,0,0,1-.32,5.42,5.42,0,0,0,1.78-1.19,5.49,5.49,0,0,0,0-7.77A4.68,4.68,0,0,0,334.55,305.53Z"/><path d="M260.32,289.39a6.61,6.61,0,0,0,.95-.5,5.88,5.88,0,0,0,1.52-1.52,5.07,5.07,0,0,0,.5-.95,5.57,5.57,0,0,0,.32-1,5.65,5.65,0,0,0,.11-1.08,5.55,5.55,0,0,0-.11-1.07,5.34,5.34,0,0,0-.32-1,5.07,5.07,0,0,0-.5-.95,5.5,5.5,0,0,0-1.52-1.52,5.07,5.07,0,0,0-.95-.5,5.34,5.34,0,0,0-1-.32,5.56,5.56,0,0,0-2.15,0,5.34,5.34,0,0,0-1,.32,5.07,5.07,0,0,0-1,.5,5.5,5.5,0,0,0-1.52,1.52,5.07,5.07,0,0,0-.5.95,5.34,5.34,0,0,0-.32,1,5.55,5.55,0,0,0-.11,1.07,5.65,5.65,0,0,0,.11,1.08,5.57,5.57,0,0,0,.32,1,5.07,5.07,0,0,0,.5.95,5.88,5.88,0,0,0,1.52,1.52,6.61,6.61,0,0,0,1,.5,5.34,5.34,0,0,0,1,.32,5.64,5.64,0,0,0,1.08.1,5.54,5.54,0,0,0,1.07-.1A5.34,5.34,0,0,0,260.32,289.39Z"/><path d="M373.22,320.9a4.52,4.52,0,0,0-.5-.95,5.06,5.06,0,0,0-.69-.84,5.47,5.47,0,0,0-.83-.68,5.79,5.79,0,0,0-.95-.51,5.31,5.31,0,0,0-1-.31,5.53,5.53,0,0,0-5,1.5,5.06,5.06,0,0,0-.69.84,4.78,4.78,0,0,0-.5.95,5.13,5.13,0,0,0-.32,1,5.46,5.46,0,0,0-.1,1.07,5.48,5.48,0,0,0,6.57,5.39,5.31,5.31,0,0,0,1-.31,5.79,5.79,0,0,0,.95-.51,5.47,5.47,0,0,0,.83-.68,5.06,5.06,0,0,0,.69-.84,4.52,4.52,0,0,0,.5-.95,5.25,5.25,0,0,0,.32-1,5.64,5.64,0,0,0,.1-1.08,5.46,5.46,0,0,0-.1-1.07A5.13,5.13,0,0,0,373.22,320.9Z"/><path d="M310.19,263.58a5.5,5.5,0,0,0-8.46-.83,4.93,4.93,0,0,0-.68.83,5.79,5.79,0,0,0-.51.95,5.53,5.53,0,0,0-.31,1,5.65,5.65,0,0,0-.11,1.08,5.47,5.47,0,0,0,.11,1.07,5.31,5.31,0,0,0,.31,1,5.79,5.79,0,0,0,.51.95,5.44,5.44,0,0,0,.68.84,5.54,5.54,0,0,0,3.89,1.61,5.47,5.47,0,0,0,1.07-.11,6.11,6.11,0,0,0,1-.31,5.79,5.79,0,0,0,.95-.51,5.16,5.16,0,0,0,1.52-1.52,5.79,5.79,0,0,0,.51-.95,6.11,6.11,0,0,0,.31-1,5.47,5.47,0,0,0,.11-1.07,5.65,5.65,0,0,0-.11-1.08,6.4,6.4,0,0,0-.31-1A5.79,5.79,0,0,0,310.19,263.58Z"/><path d="M347.34,277.43a5.79,5.79,0,0,0-.51-.95,6.09,6.09,0,0,0-.68-.84,5.55,5.55,0,0,0-.84-.68,5.08,5.08,0,0,0-.95-.51,6,6,0,0,0-1-.31,5.57,5.57,0,0,0-5,1.5,6.09,6.09,0,0,0-.68.84,5.79,5.79,0,0,0-.51.95,5.31,5.31,0,0,0-.31,1,5.47,5.47,0,0,0-.11,1.07,5.5,5.5,0,0,0,5.5,5.5,5,5,0,0,0,1.08-.11,5.22,5.22,0,0,0,1-.31,5.7,5.7,0,0,0,.95-.5,5.06,5.06,0,0,0,.84-.69,5.54,5.54,0,0,0,1.61-3.89,5.47,5.47,0,0,0-.11-1.07A5.31,5.31,0,0,0,347.34,277.43Z"/><path d="M263.9,255.84a4.52,4.52,0,0,0,.5,1,4.68,4.68,0,0,0,.69.84,5.47,5.47,0,0,0,.83.68,5.79,5.79,0,0,0,.95.51,5.31,5.31,0,0,0,1,.31,5.31,5.31,0,0,0,2.15,0,5.31,5.31,0,0,0,1-.31,5.79,5.79,0,0,0,.95-.51,5.54,5.54,0,0,0,2.34-5.64,5.34,5.34,0,0,0-.32-1,5.74,5.74,0,0,0-.5-.95,5.5,5.5,0,0,0-1.52-1.52,5.79,5.79,0,0,0-.95-.51,6.11,6.11,0,0,0-1-.31,5.56,5.56,0,0,0-2.15,0,6.11,6.11,0,0,0-1,.31,5.79,5.79,0,0,0-.95.51,5.5,5.5,0,0,0-1.52,1.52,5.07,5.07,0,0,0-.5.95,5.34,5.34,0,0,0-.32,1,5.46,5.46,0,0,0-.1,1.07,5.64,5.64,0,0,0,.1,1.08A5.25,5.25,0,0,0,263.9,255.84Z"/><path d="M384,290.32a6,6,0,0,0-.5-.94,4.68,4.68,0,0,0-.69-.84,5.53,5.53,0,0,0-5-1.5,5.31,5.31,0,0,0-1,.31,6.61,6.61,0,0,0-.95.5,7,7,0,0,0-.84.69,5.1,5.1,0,0,0-.68.84,4.7,4.7,0,0,0-.5.94,5.57,5.57,0,0,0-.32,1,5.65,5.65,0,0,0-.11,1.08,5.47,5.47,0,0,0,.11,1.07,5.34,5.34,0,0,0,.32,1,5.07,5.07,0,0,0,.5,1,5.16,5.16,0,0,0,1.52,1.52,5.79,5.79,0,0,0,.95.51,6.11,6.11,0,0,0,1,.31,5.5,5.5,0,0,0,5.65-2.34,6.61,6.61,0,0,0,.5-1,5.31,5.31,0,0,0,.31-1,4.8,4.8,0,0,0,.11-1.07,5,5,0,0,0-.11-1.08A5.53,5.53,0,0,0,384,290.32Z"/><path d="M335.56,387.43a5.76,5.76,0,0,0-1.19-1.79,5.54,5.54,0,0,0-5-1.5,5.31,5.31,0,0,0-1,.31,5.79,5.79,0,0,0-.95.51,6.09,6.09,0,0,0-.84.68,5.5,5.5,0,0,0-1.5,2.82,5.26,5.26,0,0,0,0,2.14,5.31,5.31,0,0,0,.31,1,5.79,5.79,0,0,0,.51.95,5.16,5.16,0,0,0,1.52,1.52,5.79,5.79,0,0,0,.95.51,5.31,5.31,0,0,0,1,.31,5.47,5.47,0,0,0,1.07.11,5.54,5.54,0,0,0,3.89-1.61,6.09,6.09,0,0,0,.68-.84,5.79,5.79,0,0,0,.51-.95,5.11,5.11,0,0,0,.31-1,5.26,5.26,0,0,0,0-2.14A5.11,5.11,0,0,0,335.56,387.43Z"/><path d="M251,357.67a5.08,5.08,0,0,0-.51-.95,4.63,4.63,0,0,0-.68-.84,6.2,6.2,0,0,0-.83-.69,6.61,6.61,0,0,0-.95-.5,5.53,5.53,0,0,0-6,1.19,5.1,5.1,0,0,0-.68.84,4.52,4.52,0,0,0-.5.95,5.25,5.25,0,0,0-.32,1,5.65,5.65,0,0,0-.11,1.08,5.47,5.47,0,0,0,.11,1.07,5.34,5.34,0,0,0,.32,1,5.07,5.07,0,0,0,.5.95,6.09,6.09,0,0,0,.68.84,5.56,5.56,0,0,0,3.89,1.61,5.65,5.65,0,0,0,1.08-.11,6.4,6.4,0,0,0,1-.31,5.79,5.79,0,0,0,.95-.51,5.29,5.29,0,0,0,1.51-1.52,5.79,5.79,0,0,0,.51-.95,6.14,6.14,0,0,0,.32-1,5.46,5.46,0,0,0,.1-1.07,5.64,5.64,0,0,0-.1-1.08A6,6,0,0,0,251,357.67Z"/></svg>