<svg id="bddd854b-5b13-4bf2-8de1-963d2685d94d" data-name="Layer 2" xmlns="http://www.w3.org/2000/svg" viewBox="0 0 512 512"><path d="M349.58,288.06V267.12a5.45,5.45,0,0,0-1.33-3.58l-.17-3.18a132,132,0,0,0-46.24-93.13c-36.47-30.95-84.93-66.86-87-68.37a5.5,5.5,0,0,0-8.77,4.49l.36,27.77a5.46,5.46,0,0,0,1.8,4l0,0c1.5,1.11,37.13,27.46,72.26,57.26a98.8,98.8,0,0,1,34.6,69.23H283a5.45,5.45,0,0,0-2.58.64c-14.57-3.19-68.06-14.17-116-14.69a5.51,5.51,0,0,0-5.56,5.5v33.22a5.5,5.5,0,0,0,8.9,4.32l6-4.69a42.12,42.12,0,0,1,30.75-8.81c9.1,1,20.15,2.3,31.28,3.85a14.6,14.6,0,0,0,11.69,23.37h70l2.66,49.24c-.75,2.38-2.82,7.48-7.47,10.36-5.54,3.43-14,3.55-25.09.35a16.37,16.37,0,0,0-4.56-.65H265.8a5.5,5.5,0,0,0-5.5,5.5v22a5.5,5.5,0,0,0,5.5,5.5h14.91a82.84,82.84,0,0,0,21.06,2.95q3,0,5.9-.29v9.43a5.5,5.5,0,0,0,5.5,5.5h22a5.5,5.5,0,0,0,5.5-5.5V383A52.85,52.85,0,0,0,353,357.73a17.05,17.05,0,0,0,.18-3.5Zm-23.47-26.51A109.9,109.9,0,0,0,287.61,184c-30.6-25.95-60.74-48.7-70.19-55.75l-.18-13.88c16,12,50.14,38,77.48,61.24A120.94,120.94,0,0,1,337.1,261l0,.66h-11ZM169.82,275.12V258.68c44.87,1.22,93.27,11.07,107.63,14.2v2.2H267.33c-19-3.88-44-7-61.69-8.9A53.06,53.06,0,0,0,169.82,275.12Zm74,14.59a3.63,3.63,0,0,1,3.62-3.63h30v7.25h-30A3.62,3.62,0,0,1,243.8,289.71Zm44.65-9.13v-8h50.13v20.71H288.45ZM342.11,356a42,42,0,0,1-10.88,21,5.5,5.5,0,0,0-1.56,3.84v22.41h-11V392.87A5.5,5.5,0,0,0,312,387.5a47.63,47.63,0,0,1-10.22,1.08,72.63,72.63,0,0,1-18.89-2.76,5.87,5.87,0,0,0-1.44-.19H271.3v-11H283a5.27,5.27,0,0,1,1.52.22c14.22,4.1,25.63,3.57,33.93-1.57,8.46-5.25,11.58-14.1,12.52-17.66a5.51,5.51,0,0,0,.18-1.71l-2.68-49.58h11l2.73,50.49A5.74,5.74,0,0,1,342.11,356Z"/></svg>